<svg width="103" height="103" viewBox="0 0 103 103" fill="none" xmlns="http://www.w3.org/2000/svg">
<path d="M51.5 0C37.8414 0 24.7421 5.42588 15.084 15.084C5.42588 24.7421 0 37.8414 0 51.5C0 65.1587 5.42588 78.2579 15.084 87.916C24.7421 97.5741 37.8414 103 51.5 103C65.1587 103 78.2579 97.5741 87.916 87.916C97.5741 78.2579 103 65.1587 103 51.5C103 37.8414 97.5741 24.7421 87.916 15.084C78.2579 5.42588 65.1587 0 51.5 0ZM27.1582 48.4824C25.2672 46.5914 25.2672 43.5336 27.1582 41.6627C29.0492 39.7918 32.107 39.7717 33.9779 41.6627L51.4799 59.1646L68.9818 41.6627C70.8728 39.7717 73.9307 39.7717 75.8016 41.6627C77.6725 43.5537 77.6926 46.6115 75.8016 48.4824L54.9199 69.4043C53.0289 71.2953 49.9711 71.2953 48.1002 69.4043L27.1582 48.4824Z" fill="#3F3D56"/>
</svg>
