<svg width="19" height="16" viewBox="0 0 19 16" fill="none" xmlns="http://www.w3.org/2000/svg">
<path d="M15.3947 6.56583C15.3947 7.95001 14.8544 9.22863 13.9442 10.266L18.5351 14.0868C18.9884 14.4638 18.9884 15.0759 18.5351 15.4529C18.0819 15.8298 17.3457 15.8298 16.8924 15.4529L12.3014 11.6321C11.054 12.392 9.5164 12.8383 7.8519 12.8383C3.68522 12.8383 0.309082 10.0308 0.309082 6.56583C0.309082 3.10088 3.68522 0.293335 7.8519 0.293335C12.0186 0.293335 15.3947 3.10088 15.3947 6.56583ZM7.8519 10.9083C8.53766 10.9083 9.2167 10.796 9.85026 10.5778C10.4838 10.3596 11.0595 10.0397 11.5444 9.63645C12.0293 9.23321 12.4139 8.75449 12.6764 8.22764C12.9388 7.70078 13.0739 7.1361 13.0739 6.56583C13.0739 5.99557 12.9388 5.43089 12.6764 4.90403C12.4139 4.37718 12.0293 3.89846 11.5444 3.49522C11.0595 3.09198 10.4838 2.77212 9.85026 2.55389C9.2167 2.33566 8.53766 2.22333 7.8519 2.22333C7.16615 2.22333 6.4871 2.33566 5.85355 2.55389C5.21999 2.77212 4.64433 3.09198 4.15942 3.49522C3.67452 3.89846 3.28988 4.37718 3.02745 4.90403C2.76502 5.43089 2.62995 5.99557 2.62995 6.56583C2.62995 7.1361 2.76502 7.70078 3.02745 8.22764C3.28988 8.75449 3.67452 9.23321 4.15942 9.63645C4.64433 10.0397 5.21999 10.3596 5.85355 10.5778C6.4871 10.796 7.16615 10.9083 7.8519 10.9083Z" fill="white"/>
</svg>
