<svg width="273" height="82" viewBox="0 0 273 82" fill="none" xmlns="http://www.w3.org/2000/svg">
    <g clip-path="url(#clip0_17_24)">
        <path d="M63.0718 15.273H66.7478V36.9731C66.7478 38.9099 66.392 40.5551 65.6805 41.9089C64.9691 43.2627 63.9661 44.2904 62.6716 44.992C61.3771 45.6936 59.8504 46.0444 58.0914 46.0444C56.4313 46.0444 54.954 45.743 53.6595 45.1402C52.365 44.5276 51.3472 43.658 50.6061 42.5315C49.865 41.405 49.4944 40.066 49.4944 38.5146H53.1111C53.1111 39.3743 53.3236 40.1253 53.7485 40.7676C54.1833 41.4 54.7762 41.8941 55.5272 42.2498C56.2782 42.6056 57.1329 42.7835 58.0914 42.7835C59.1488 42.7835 60.048 42.5611 60.7891 42.1164C61.5303 41.6718 62.0935 41.0196 62.4789 40.1599C62.8742 39.2903 63.0718 38.228 63.0718 36.9731V15.273ZM90.7156 22.8621C90.5378 21.3601 89.8164 20.1941 88.5516 19.364C87.2867 18.5339 85.7353 18.1189 83.8973 18.1189C82.5534 18.1189 81.3775 18.3363 80.3696 18.7711C79.3715 19.2059 78.5909 19.8037 78.0276 20.5646C77.4743 21.3255 77.1976 22.1901 77.1976 23.1585C77.1976 23.9688 77.3903 24.6655 77.7757 25.2485C78.1709 25.8216 78.6749 26.3009 79.2875 26.6863C79.9002 27.0618 80.5425 27.3731 81.2145 27.6201C81.8864 27.8573 82.504 28.0499 83.0673 28.1982L86.1503 29.0282C86.9409 29.2357 87.8203 29.5223 88.7887 29.8879C89.767 30.2535 90.7008 30.7526 91.5902 31.385C92.4894 32.0075 93.2305 32.8079 93.8135 33.7862C94.3966 34.7645 94.6881 35.9651 94.6881 37.3881C94.6881 39.0284 94.2582 40.5107 93.3985 41.8348C92.5487 43.159 91.3036 44.2114 89.6633 44.992C88.0328 45.7726 86.0515 46.163 83.7195 46.163C81.5455 46.163 79.663 45.8122 78.0721 45.1106C76.491 44.409 75.246 43.4307 74.3368 42.1757C73.4376 40.9208 72.9287 39.4632 72.8101 37.8031H76.6047C76.7035 38.9494 77.0889 39.898 77.7608 40.649C78.4427 41.3901 79.3024 41.9435 80.3399 42.3091C81.3874 42.6649 82.5139 42.8427 83.7195 42.8427C85.1226 42.8427 86.3826 42.6155 87.4992 42.1609C88.6158 41.6965 89.5002 41.0542 90.1524 40.234C90.8046 39.4039 91.1307 38.4355 91.1307 37.3288C91.1307 36.3209 90.849 35.5007 90.2858 34.8683C89.7225 34.2358 88.9814 33.722 88.0624 33.3267C87.1434 32.9315 86.1503 32.5856 85.0831 32.2892L81.3479 31.2219C78.9763 30.5401 77.0988 29.5668 75.7153 28.3019C74.3319 27.0371 73.6402 25.3819 73.6402 23.3364C73.6402 21.6368 74.0997 20.1545 75.0187 18.8897C75.9475 17.6149 77.1926 16.6268 78.7539 15.9252C80.3251 15.2137 82.0791 14.858 84.0159 14.858C85.9725 14.858 87.7116 15.2088 89.2334 15.9104C90.7552 16.6021 91.9607 17.5507 92.8501 18.7563C93.7493 19.9618 94.2236 21.3304 94.273 22.8621H90.7156ZM121.839 45.6294H112.471V15.273H122.254C125.199 15.273 127.719 15.8807 129.814 17.0962C131.908 18.3017 133.514 20.0359 134.631 22.2988C135.747 24.5518 136.306 27.2495 136.306 30.3919C136.306 33.554 135.743 36.2764 134.616 38.5591C133.49 40.8318 131.849 42.5809 129.695 43.8062C127.541 45.0216 124.922 45.6294 121.839 45.6294ZM116.147 42.3684H121.602C124.112 42.3684 126.192 41.8842 127.842 40.9158C129.492 39.9474 130.723 38.5689 131.533 36.7804C132.343 34.9918 132.748 32.8623 132.748 30.3919C132.748 27.9412 132.348 25.8315 131.548 24.0627C130.747 22.284 129.552 20.9203 127.961 19.9717C126.37 19.0132 124.389 18.5339 122.017 18.5339H116.147V42.3684ZM168.085 30.4512C168.085 33.6528 167.507 36.4197 166.351 38.7517C165.195 41.0838 163.609 42.8823 161.593 44.1471C159.577 45.412 157.275 46.0444 154.686 46.0444C152.097 46.0444 149.794 45.412 147.778 44.1471C145.762 42.8823 144.176 41.0838 143.02 38.7517C141.864 36.4197 141.286 33.6528 141.286 30.4512C141.286 27.2495 141.864 24.4827 143.02 22.1506C144.176 19.8185 145.762 18.0201 147.778 16.7552C149.794 15.4904 152.097 14.858 154.686 14.858C157.275 14.858 159.577 15.4904 161.593 16.7552C163.609 18.0201 165.195 19.8185 166.351 22.1506C167.507 24.4827 168.085 27.2495 168.085 30.4512ZM164.528 30.4512C164.528 27.8227 164.088 25.6042 163.209 23.7959C162.339 21.9876 161.158 20.619 159.666 19.6901C158.184 18.7612 156.524 18.2968 154.686 18.2968C152.848 18.2968 151.183 18.7612 149.69 19.6901C148.208 20.619 147.027 21.9876 146.148 23.7959C145.278 25.6042 144.844 27.8227 144.844 30.4512C144.844 33.0797 145.278 35.2981 146.148 37.1065C147.027 38.9148 148.208 40.2834 149.69 41.2123C151.183 42.1411 152.848 42.6056 154.686 42.6056C156.524 42.6056 158.184 42.1411 159.666 41.2123C161.158 40.2834 162.339 38.9148 163.209 37.1065C164.088 35.2981 164.528 33.0797 164.528 30.4512ZM190.867 22.8621C190.689 21.3601 189.968 20.1941 188.703 19.364C187.438 18.5339 185.887 18.1189 184.049 18.1189C182.705 18.1189 181.529 18.3363 180.521 18.7711C179.523 19.2059 178.742 19.8037 178.179 20.5646C177.626 21.3255 177.349 22.1901 177.349 23.1585C177.349 23.9688 177.542 24.6655 177.927 25.2485C178.322 25.8216 178.826 26.3009 179.439 26.6863C180.052 27.0618 180.694 27.3731 181.366 27.6201C182.038 27.8573 182.656 28.0499 183.219 28.1982L186.302 29.0282C187.092 29.2357 187.972 29.5223 188.94 29.8879C189.919 30.2535 190.852 30.7526 191.742 31.385C192.641 32.0075 193.382 32.8079 193.965 33.7862C194.548 34.7645 194.84 35.9651 194.84 37.3881C194.84 39.0284 194.41 40.5107 193.55 41.8348C192.7 43.159 191.455 44.2114 189.815 44.992C188.184 45.7726 186.203 46.163 183.871 46.163C181.697 46.163 179.815 45.8122 178.224 45.1106C176.643 44.409 175.398 43.4307 174.488 42.1757C173.589 40.9208 173.08 39.4632 172.962 37.8031H176.756C176.855 38.9494 177.24 39.898 177.912 40.649C178.594 41.3901 179.454 41.9435 180.491 42.3091C181.539 42.6649 182.665 42.8427 183.871 42.8427C185.274 42.8427 186.534 42.6155 187.651 42.1609C188.767 41.6965 189.652 41.0542 190.304 40.234C190.956 39.4039 191.282 38.4355 191.282 37.3288C191.282 36.3209 191.001 35.5007 190.437 34.8683C189.874 34.2358 189.133 33.722 188.214 33.3267C187.295 32.9315 186.302 32.5856 185.235 32.2892L181.499 31.2219C179.128 30.5401 177.25 29.5668 175.867 28.3019C174.483 27.0371 173.792 25.3819 173.792 23.3364C173.792 21.6368 174.251 20.1545 175.17 18.8897C176.099 17.6149 177.344 16.6268 178.905 15.9252C180.477 15.2137 182.231 14.858 184.167 14.858C186.124 14.858 187.863 15.2088 189.385 15.9104C190.907 16.6021 192.112 17.5507 193.002 18.7563C193.901 19.9618 194.375 21.3304 194.425 22.8621H190.867ZM200.883 45.6294V15.273H219.204V18.5339H204.559V28.7911H218.255V32.052H204.559V42.3684H219.441V45.6294H200.883Z" fill="#363636"/>
        <path d="M52.1385 57.0303H53.1974L55.3153 60.5949H55.4048L57.5227 57.0303H58.5816L55.8224 61.5196V64.6667H54.8977V61.5196L52.1385 57.0303ZM64.2199 64.786C63.7029 64.786 63.2492 64.6629 62.859 64.4168C62.4712 64.1707 62.1679 63.8265 61.9492 63.384C61.7329 62.9415 61.6248 62.4245 61.6248 61.8328C61.6248 61.2363 61.7329 60.7155 61.9492 60.2705C62.1679 59.8256 62.4712 59.48 62.859 59.234C63.2492 58.9879 63.7029 58.8648 64.2199 58.8648C64.737 58.8648 65.1894 58.9879 65.5772 59.234C65.9675 59.48 66.2707 59.8256 66.487 60.2705C66.7057 60.7155 66.8151 61.2363 66.8151 61.8328C66.8151 62.4245 66.7057 62.9415 66.487 63.384C66.2707 63.8265 65.9675 64.1707 65.5772 64.4168C65.1894 64.6629 64.737 64.786 64.2199 64.786ZM64.2199 63.9955C64.6127 63.9955 64.9359 63.8948 65.1894 63.6935C65.443 63.4921 65.6306 63.2274 65.7524 62.8993C65.8742 62.5711 65.9351 62.2157 65.9351 61.8328C65.9351 61.45 65.8742 61.0933 65.7524 60.7627C65.6306 60.4321 65.443 60.1649 65.1894 59.961C64.9359 59.7572 64.6127 59.6553 64.2199 59.6553C63.8272 59.6553 63.504 59.7572 63.2505 59.961C62.9969 60.1649 62.8093 60.4321 62.6875 60.7627C62.5657 61.0933 62.5048 61.45 62.5048 61.8328C62.5048 62.2157 62.5657 62.5711 62.6875 62.8993C62.8093 63.2274 62.9969 63.4921 63.2505 63.6935C63.504 63.8948 63.8272 63.9955 64.2199 63.9955ZM74.8128 62.325V58.9394H75.6927V64.6667H74.8128V63.6972H74.7531C74.6189 63.988 74.4101 64.2354 74.1267 64.4392C73.8433 64.6406 73.4853 64.7412 73.0528 64.7412C72.6949 64.7412 72.3767 64.6629 72.0983 64.5063C71.8199 64.3472 71.6011 64.1086 71.442 63.7904C71.2829 63.4697 71.2034 63.0658 71.2034 62.5786V58.9394H72.0834V62.5189C72.0834 62.9365 72.2002 63.2696 72.4339 63.5182C72.67 63.7668 72.9708 63.8911 73.3362 63.8911C73.5549 63.8911 73.7774 63.8352 74.0036 63.7233C74.2323 63.6114 74.4237 63.4399 74.5778 63.2087C74.7345 62.9776 74.8128 62.683 74.8128 62.325ZM80.3495 64.6667V58.9394H81.1996V59.8044H81.2593C81.3637 59.5211 81.5526 59.2911 81.826 59.1146C82.0995 58.9381 82.4077 58.8499 82.7507 58.8499C82.8154 58.8499 82.8962 58.8511 82.9931 58.8536C83.09 58.8561 83.1634 58.8598 83.2131 58.8648V59.7597C83.1833 59.7522 83.1149 59.7411 83.008 59.7261C82.9036 59.7087 82.793 59.7 82.6762 59.7C82.3978 59.7 82.1492 59.7585 81.9304 59.8753C81.7142 59.9896 81.5426 60.1487 81.4159 60.3526C81.2916 60.5539 81.2294 60.7838 81.2294 61.0424V64.6667H80.3495ZM95.7752 64.6667H93.4186V57.0303H95.8796C96.6203 57.0303 97.2542 57.1832 97.7812 57.4889C98.3082 57.7922 98.7121 58.2284 98.993 58.7977C99.2739 59.3645 99.4144 60.0431 99.4144 60.8336C99.4144 61.629 99.2727 62.3139 98.9893 62.8881C98.7059 63.4598 98.2933 63.8998 97.7514 64.208C97.2095 64.5138 96.5507 64.6667 95.7752 64.6667ZM94.3434 63.8463H95.7155C96.3469 63.8463 96.8702 63.7245 97.2853 63.4809C97.7004 63.2373 98.0099 62.8906 98.2137 62.4406C98.4176 61.9907 98.5195 61.455 98.5195 60.8336C98.5195 60.2171 98.4188 59.6864 98.2175 59.2414C98.0161 58.794 97.7153 58.4509 97.3151 58.2123C96.9149 57.9712 96.4165 57.8506 95.8199 57.8506H94.3434V63.8463ZM105.577 64.8009C105.214 64.8009 104.884 64.7325 104.588 64.5958C104.293 64.4566 104.058 64.2565 103.884 63.9955C103.71 63.732 103.623 63.4138 103.623 63.0409C103.623 62.7128 103.687 62.4468 103.817 62.243C103.946 62.0367 104.119 61.8751 104.335 61.7583C104.551 61.6414 104.79 61.5544 105.051 61.4973C105.314 61.4376 105.579 61.3904 105.845 61.3556C106.193 61.3108 106.475 61.2773 106.691 61.2549C106.91 61.23 107.069 61.189 107.169 61.1319C107.271 61.0747 107.322 60.9753 107.322 60.8336V60.8037C107.322 60.4358 107.221 60.15 107.02 59.9461C106.821 59.7423 106.519 59.6404 106.113 59.6404C105.693 59.6404 105.364 59.7324 105.125 59.9163C104.887 60.1003 104.719 60.2966 104.622 60.5054L103.787 60.2071C103.936 59.8591 104.135 59.5882 104.383 59.3943C104.634 59.1979 104.908 59.0612 105.204 58.9841C105.502 58.9046 105.795 58.8648 106.084 58.8648C106.268 58.8648 106.479 58.8872 106.718 58.9319C106.959 58.9742 107.191 59.0624 107.415 59.1967C107.641 59.3309 107.829 59.5335 107.978 59.8044C108.127 60.0754 108.202 60.4383 108.202 60.8932V64.6667H107.322V63.8911H107.277C107.217 64.0154 107.118 64.1484 106.979 64.2901C106.839 64.4317 106.654 64.5523 106.423 64.6517C106.192 64.7512 105.91 64.8009 105.577 64.8009ZM105.711 64.0104C106.059 64.0104 106.352 63.942 106.591 63.8053C106.832 63.6686 107.013 63.4921 107.135 63.2759C107.259 63.0596 107.322 62.8321 107.322 62.5935V61.7881C107.284 61.8328 107.202 61.8739 107.075 61.9112C106.951 61.946 106.807 61.977 106.643 62.0044C106.481 62.0292 106.324 62.0516 106.169 62.0715C106.018 62.0889 105.895 62.1038 105.8 62.1162C105.572 62.1461 105.358 62.1945 105.159 62.2616C104.963 62.3263 104.803 62.4245 104.682 62.5562C104.562 62.6855 104.503 62.862 104.503 63.0857C104.503 63.3914 104.616 63.6226 104.842 63.7792C105.071 63.9333 105.36 64.0104 105.711 64.0104ZM112.853 64.6667V58.9394H113.733V64.6667H112.853ZM113.3 57.9848C113.129 57.9848 112.981 57.9264 112.856 57.8096C112.735 57.6928 112.674 57.5523 112.674 57.3882C112.674 57.2242 112.735 57.0837 112.856 56.9669C112.981 56.8501 113.129 56.7917 113.3 56.7917C113.472 56.7917 113.618 56.8501 113.74 56.9669C113.864 57.0837 113.927 57.2242 113.927 57.3882C113.927 57.5523 113.864 57.6928 113.74 57.8096C113.618 57.9264 113.472 57.9848 113.3 57.9848ZM119.269 57.0303V64.6667H118.389V57.0303H119.269ZM124.493 66.8144C124.344 66.8144 124.211 66.802 124.094 66.7771C123.977 66.7547 123.896 66.7324 123.852 66.71L124.075 65.9344C124.289 65.9891 124.478 66.009 124.642 65.9941C124.806 65.9792 124.951 65.9058 125.078 65.7741C125.208 65.6448 125.326 65.4348 125.432 65.1439L125.597 64.6965L123.479 58.9394H124.433L126.014 63.5033H126.074L127.655 58.9394H128.609L126.178 65.5019C126.069 65.7977 125.933 66.0425 125.772 66.2364C125.61 66.4328 125.423 66.5782 125.209 66.6727C124.997 66.7672 124.759 66.8144 124.493 66.8144ZM141.29 64.6667H138.933V57.0303H141.394C142.135 57.0303 142.769 57.1832 143.296 57.4889C143.823 57.7922 144.227 58.2284 144.508 58.7977C144.789 59.3645 144.929 60.0431 144.929 60.8336C144.929 61.629 144.787 62.3139 144.504 62.8881C144.221 63.4598 143.808 63.8998 143.266 64.208C142.724 64.5138 142.065 64.6667 141.29 64.6667ZM139.858 63.8463H141.23C141.862 63.8463 142.385 63.7245 142.8 63.4809C143.215 63.2373 143.525 62.8906 143.728 62.4406C143.932 61.9907 144.034 61.455 144.034 60.8336C144.034 60.2171 143.933 59.6864 143.732 59.2414C143.531 58.794 143.23 58.4509 142.83 58.2123C142.43 57.9712 141.931 57.8506 141.335 57.8506H139.858V63.8463ZM151.733 64.786C151.215 64.786 150.762 64.6629 150.372 64.4168C149.984 64.1707 149.681 63.8265 149.462 63.384C149.245 62.9415 149.137 62.4245 149.137 61.8328C149.137 61.2363 149.245 60.7155 149.462 60.2705C149.681 59.8256 149.984 59.48 150.372 59.234C150.762 58.9879 151.215 58.8648 151.733 58.8648C152.25 58.8648 152.702 58.9879 153.09 59.234C153.48 59.48 153.783 59.8256 154 60.2705C154.218 60.7155 154.328 61.2363 154.328 61.8328C154.328 62.4245 154.218 62.9415 154 63.384C153.783 63.8265 153.48 64.1707 153.09 64.4168C152.702 64.6629 152.25 64.786 151.733 64.786ZM151.733 63.9955C152.125 63.9955 152.448 63.8948 152.702 63.6935C152.956 63.4921 153.143 63.2274 153.265 62.8993C153.387 62.5711 153.448 62.2157 153.448 61.8328C153.448 61.45 153.387 61.0933 153.265 60.7627C153.143 60.4321 152.956 60.1649 152.702 59.961C152.448 59.7572 152.125 59.6553 151.733 59.6553C151.34 59.6553 151.017 59.7572 150.763 59.961C150.51 60.1649 150.322 60.4321 150.2 60.7627C150.078 61.0933 150.017 61.45 150.017 61.8328C150.017 62.2157 150.078 62.5711 150.2 62.8993C150.322 63.2274 150.51 63.4921 150.763 63.6935C151.017 63.8948 151.34 63.9955 151.733 63.9955ZM162.773 60.2221L161.982 60.4458C161.933 60.314 161.859 60.186 161.762 60.0617C161.668 59.9349 161.539 59.8305 161.375 59.7485C161.21 59.6665 161 59.6255 160.744 59.6255C160.394 59.6255 160.102 59.7063 159.868 59.8678C159.637 60.0269 159.521 60.2295 159.521 60.4756C159.521 60.6944 159.601 60.8671 159.76 60.9939C159.919 61.1207 160.168 61.2263 160.506 61.3108L161.356 61.5196C161.868 61.6439 162.25 61.8341 162.501 62.0901C162.752 62.3437 162.877 62.6706 162.877 63.0708C162.877 63.3989 162.783 63.6922 162.594 63.9507C162.407 64.2093 162.146 64.4131 161.811 64.5623C161.475 64.7114 161.085 64.786 160.64 64.786C160.056 64.786 159.572 64.6592 159.19 64.4056C158.807 64.1521 158.564 63.7817 158.462 63.2945L159.298 63.0857C159.377 63.3939 159.528 63.6251 159.749 63.7792C159.973 63.9333 160.265 64.0104 160.625 64.0104C161.035 64.0104 161.361 63.9234 161.602 63.7494C161.846 63.5729 161.967 63.3616 161.967 63.1155C161.967 62.9167 161.898 62.7501 161.759 62.6159C161.619 62.4792 161.406 62.3772 161.117 62.3101L160.163 62.0864C159.638 61.9621 159.253 61.7695 159.007 61.5085C158.763 61.245 158.641 60.9156 158.641 60.5203C158.641 60.1972 158.732 59.9113 158.914 59.6628C159.098 59.4142 159.347 59.219 159.663 59.0773C159.981 58.9357 160.342 58.8648 160.744 58.8648C161.311 58.8648 161.756 58.9891 162.079 59.2377C162.405 59.4863 162.636 59.8144 162.773 60.2221ZM169.648 64.786C169.096 64.786 168.62 64.6642 168.22 64.4206C167.822 64.1745 167.515 63.8314 167.299 63.3914C167.085 62.949 166.978 62.4344 166.978 61.8478C166.978 61.2611 167.085 60.7441 167.299 60.2966C167.515 59.8467 167.816 59.4962 168.201 59.2451C168.589 58.9916 169.042 58.8648 169.559 58.8648C169.857 58.8648 170.151 58.9145 170.442 59.014C170.733 59.1134 170.998 59.275 171.237 59.4987C171.475 59.7199 171.665 60.0132 171.807 60.3787C171.949 60.7441 172.02 61.194 172.02 61.7284V62.1013H167.605V61.3407H171.125C171.125 61.0175 171.06 60.7292 170.931 60.4756C170.804 60.2221 170.623 60.0219 170.386 59.8753C170.153 59.7286 169.877 59.6553 169.559 59.6553C169.208 59.6553 168.905 59.7423 168.649 59.9163C168.395 60.0878 168.2 60.3115 168.063 60.5875C167.927 60.8634 167.858 61.1592 167.858 61.4749V61.982C167.858 62.4145 167.933 62.7812 168.082 63.082C168.234 63.3803 168.444 63.6077 168.712 63.7643C168.981 63.9184 169.293 63.9955 169.648 63.9955C169.879 63.9955 170.088 63.9632 170.275 63.8985C170.463 63.8314 170.626 63.732 170.763 63.6003C170.9 63.466 171.005 63.2995 171.08 63.1006L171.93 63.3392C171.841 63.6276 171.69 63.8811 171.479 64.0999C171.268 64.3162 171.007 64.4852 170.696 64.607C170.385 64.7263 170.036 64.786 169.648 64.786ZM184.728 64.786C184.211 64.786 183.757 64.6629 183.367 64.4168C182.979 64.1707 182.676 63.8265 182.457 63.384C182.241 62.9415 182.133 62.4245 182.133 61.8328C182.133 61.2363 182.241 60.7155 182.457 60.2705C182.676 59.8256 182.979 59.48 183.367 59.234C183.757 58.9879 184.211 58.8648 184.728 58.8648C185.245 58.8648 185.697 58.9879 186.085 59.234C186.475 59.48 186.779 59.8256 186.995 60.2705C187.214 60.7155 187.323 61.2363 187.323 61.8328C187.323 62.4245 187.214 62.9415 186.995 63.384C186.779 63.8265 186.475 64.1707 186.085 64.4168C185.697 64.6629 185.245 64.786 184.728 64.786ZM184.728 63.9955C185.121 63.9955 185.444 63.8948 185.697 63.6935C185.951 63.4921 186.139 63.2274 186.26 62.8993C186.382 62.5711 186.443 62.2157 186.443 61.8328C186.443 61.45 186.382 61.0933 186.26 60.7627C186.139 60.4321 185.951 60.1649 185.697 59.961C185.444 59.7572 185.121 59.6553 184.728 59.6553C184.335 59.6553 184.012 59.7572 183.758 59.961C183.505 60.1649 183.317 60.4321 183.195 60.7627C183.074 61.0933 183.013 61.45 183.013 61.8328C183.013 62.2157 183.074 62.5711 183.195 62.8993C183.317 63.2274 183.505 63.4921 183.758 63.6935C184.012 63.8948 184.335 63.9955 184.728 63.9955ZM194.262 58.9394V59.6851H191.174V58.9394H194.262ZM192.099 64.6667V58.1489C192.099 57.8208 192.176 57.5473 192.33 57.3286C192.484 57.1098 192.685 56.9458 192.931 56.8364C193.177 56.727 193.437 56.6723 193.71 56.6723C193.926 56.6723 194.103 56.6897 194.239 56.7245C194.376 56.7593 194.478 56.7917 194.545 56.8215L194.292 57.5821C194.247 57.5672 194.185 57.5486 194.105 57.5262C194.028 57.5038 193.926 57.4927 193.799 57.4927C193.509 57.4927 193.299 57.566 193.169 57.7126C193.043 57.8593 192.979 58.0743 192.979 58.3577V64.6667H192.099ZM207.581 57.0303H208.506V62.4891C208.506 62.9763 208.416 63.3902 208.237 63.7308C208.058 64.0713 207.806 64.3298 207.48 64.5063C207.155 64.6828 206.77 64.7711 206.328 64.7711C205.91 64.7711 205.539 64.6952 205.213 64.5436C204.887 64.3895 204.631 64.1707 204.445 63.8874C204.259 63.604 204.165 63.2672 204.165 62.8769H205.075C205.075 63.0931 205.129 63.2821 205.235 63.4436C205.345 63.6027 205.494 63.727 205.683 63.8165C205.872 63.906 206.087 63.9507 206.328 63.9507C206.594 63.9507 206.82 63.8948 207.007 63.783C207.193 63.6711 207.335 63.507 207.432 63.2908C207.531 63.072 207.581 62.8048 207.581 62.4891V57.0303ZM217.58 58.9394C217.535 58.5615 217.354 58.2682 217.035 58.0594C216.717 57.8506 216.327 57.7462 215.865 57.7462C215.527 57.7462 215.231 57.8009 214.977 57.9103C214.726 58.0196 214.53 58.17 214.388 58.3614C214.249 58.5528 214.179 58.7703 214.179 59.014C214.179 59.2178 214.228 59.393 214.325 59.5397C214.424 59.6839 214.551 59.8044 214.705 59.9014C214.859 59.9958 215.021 60.0741 215.19 60.1363C215.359 60.196 215.514 60.2444 215.656 60.2817L216.431 60.4905C216.63 60.5427 216.851 60.6148 217.095 60.7068C217.341 60.7988 217.576 60.9243 217.8 61.0834C218.026 61.24 218.212 61.4413 218.359 61.6874C218.506 61.9335 218.579 62.2355 218.579 62.5935C218.579 63.0061 218.471 63.379 218.255 63.7121C218.041 64.0452 217.728 64.3099 217.315 64.5063C216.905 64.7027 216.407 64.8009 215.82 64.8009C215.273 64.8009 214.799 64.7126 214.399 64.5362C214.002 64.3597 213.688 64.1136 213.46 63.7979C213.233 63.4822 213.105 63.1155 213.076 62.6979H214.03C214.055 62.9863 214.152 63.2249 214.321 63.4138C214.492 63.6003 214.709 63.7395 214.97 63.8314C215.233 63.9209 215.517 63.9657 215.82 63.9657C216.173 63.9657 216.49 63.9085 216.771 63.7941C217.052 63.6773 217.274 63.5157 217.438 63.3094C217.602 63.1006 217.684 62.857 217.684 62.5786C217.684 62.325 217.613 62.1187 217.472 61.9596C217.33 61.8005 217.144 61.6713 216.912 61.5718C216.681 61.4724 216.431 61.3854 216.163 61.3108L215.223 61.0424C214.627 60.8708 214.154 60.626 213.806 60.3078C213.458 59.9896 213.284 59.5733 213.284 59.0587C213.284 58.6311 213.4 58.2583 213.631 57.9401C213.865 57.6194 214.178 57.3708 214.571 57.1944C214.966 57.0154 215.407 56.9259 215.894 56.9259C216.387 56.9259 216.824 57.0141 217.207 57.1906C217.59 57.3646 217.893 57.6033 218.117 57.9065C218.343 58.2098 218.462 58.5541 218.475 58.9394H217.58Z" fill="#363636"/>
        <path d="M73.0199 70.1868L104.641 37.0878L73.0199 3.98923L65.1902 12.1903L88.9764 37.0878L65.1902 61.9857L73.0199 70.1868ZM31.9457 3.98923L0.324585 37.0878L31.9457 70.1868L39.7753 61.9857L15.989 37.0878L39.7753 12.1903L31.9457 3.98923Z" fill="url(#paint0_linear_17_24)"/>
        <path d="M241.228 69.9384L273 36.8394L241.228 3.74081L233.361 11.9419L257.261 36.8394L233.361 61.7373L241.228 69.9384ZM199.958 3.74081L168.186 36.8394L199.958 69.9384L207.825 61.7373L183.925 36.8394L207.825 11.9419L199.958 3.74081Z" fill="url(#paint1_linear_17_24)"/>
    </g>
    <defs>
        <linearGradient id="paint0_linear_17_24" x1="54.017" y1="37.0174" x2="59.4961" y2="36.7687" gradientUnits="userSpaceOnUse">
            <stop stop-color="#363636"/>
            <stop offset="1" stop-color="#363636" stop-opacity="0"/>
        </linearGradient>
        <linearGradient id="paint1_linear_17_24" x1="228.104" y1="36.769" x2="222.376" y2="36.769" gradientUnits="userSpaceOnUse">
            <stop stop-color="#363636"/>
            <stop offset="1" stop-color="#363636" stop-opacity="0"/>
        </linearGradient>
        <clipPath id="clip0_17_24">
            <rect width="273" height="82" fill="white"/>
        </clipPath>
    </defs>
</svg>
