<svg width="592" height="432" viewBox="0 0 592 432" fill="none" xmlns="http://www.w3.org/2000/svg">
<g clip-path="url(#clip0_10_806)">
<path d="M344.839 76.1566C355.934 76.1566 364.929 67.1322 364.929 56C364.929 44.8679 355.934 35.8435 344.839 35.8435C333.744 35.8435 324.75 44.8679 324.75 56C324.75 67.1322 333.744 76.1566 344.839 76.1566Z" fill="#F2F2F2"/>
<path d="M500.68 375.302C530.541 352.482 544.803 314.136 535.874 277.555C535.652 276.647 535.418 275.74 535.172 274.835C529.252 253.121 514.608 232.484 493.263 225.546C475.342 219.721 455.779 224.2 437.083 221.884C400.38 217.336 371.925 187.54 351.903 156.344C331.881 125.147 316.494 90.2265 289.889 64.4534C246.036 21.9709 174.5 12.8244 120.129 40.4773C65.757 68.1303 31.1228 129.481 32.5999 190.624C34.077 251.768 70.2545 310.225 122.793 341.241C142.094 352.634 164.417 360.706 186.633 357.882C205.909 355.431 223.424 345.039 242.61 341.953C272.774 337.103 302.747 350.786 328.837 366.732C354.926 382.678 380.127 401.578 409.775 408.971C438.563 416.149 474.228 395.517 500.68 375.302Z" fill="#F2F2F2"/>
<path d="M457.777 41.7613C457.122 41.3234 456.46 40.9082 455.806 40.4855C436.884 28.3434 416.602 18.4793 395.381 11.097L390.46 79.2045H359.266V1.15496C357.302 0.747309 355.323 0.362308 353.345 -4.57764e-05V79.2045H316.274C295.866 79.2045 276.294 71.0706 261.864 56.592C247.433 42.1135 239.326 22.4763 239.326 2.00054C237.34 2.43083 235.369 2.89126 233.398 3.38195V79.2046H203.204L198.517 14.2601C176.708 22.6519 156.004 33.6874 136.865 47.1211C136.534 47.3476 136.203 47.5816 135.88 47.8081C134.217 48.9782 132.577 50.1709 130.944 51.3788V311.209H219.93L218.357 289.355L209.705 169.363H383.952L375.299 289.355L373.727 311.209H461.727V44.3884C460.418 43.4976 459.101 42.6219 457.777 41.7613ZM233.398 149.547H208.275L203.633 85.1532H233.398V149.547ZM353.345 149.547H311.15V148.271C311.15 147.657 311.03 147.05 310.796 146.484C310.561 145.917 310.218 145.402 309.786 144.969C309.353 144.536 308.84 144.192 308.275 143.958C307.71 143.724 307.104 143.604 306.493 143.605H288.149C287.539 143.605 286.934 143.726 286.37 143.96C285.806 144.194 285.293 144.538 284.861 144.971C284.429 145.405 284.087 145.919 283.853 146.485C283.62 147.051 283.499 147.658 283.5 148.271V149.547H239.327V85.1532H353.345V149.547ZM359.266 149.547V85.1532H390.031L385.389 149.547H359.266Z" fill="#3F3D56"/>
<path d="M0 327.848C6.53625 335.619 13.6059 342.921 21.1574 349.703L570.843 350.458C578.394 343.676 585.464 336.374 592 328.603L0 327.848Z" fill="#3F3D56"/>
<path d="M372.759 257.869V322.567C372.76 323.392 373.087 324.182 373.668 324.765C374.249 325.348 375.037 325.676 375.858 325.677H471.416C472.238 325.676 473.026 325.348 473.607 324.765C474.188 324.182 474.515 323.392 474.515 322.567V257.869C474.513 257.045 474.186 256.256 473.605 255.673C473.024 255.091 472.237 254.764 471.416 254.763H375.858C375.037 254.764 374.25 255.091 373.669 255.673C373.088 256.256 372.761 257.045 372.759 257.869Z" fill="#3F3D56"/>
<path d="M375.001 258.674V321.769C375.002 322.21 375.176 322.632 375.487 322.943C375.797 323.255 376.218 323.43 376.657 323.431H470.621C471.06 323.43 471.481 323.255 471.791 322.943C472.101 322.632 472.276 322.21 472.277 321.769V258.674C472.277 258.233 472.103 257.81 471.792 257.498C471.481 257.185 471.06 257.01 470.621 257.009H376.657C376.218 257.01 375.796 257.185 375.486 257.498C375.175 257.81 375.001 258.233 375.001 258.674Z" fill="#6C63FF"/>
<path d="M370.761 335.185C370.936 335.405 371.158 335.583 371.412 335.704C371.665 335.826 371.942 335.888 372.223 335.887H474.543C474.823 335.887 475.099 335.824 475.351 335.703C475.604 335.582 475.826 335.406 476.003 335.188C476.179 334.97 476.305 334.715 476.37 334.442C476.436 334.169 476.441 333.885 476.383 333.61L474.795 326.041C474.729 325.732 474.587 325.445 474.383 325.205C474.178 324.966 473.917 324.781 473.623 324.669C473.41 324.585 473.183 324.542 472.954 324.542H373.805C373.576 324.542 373.35 324.585 373.137 324.669C372.843 324.781 372.582 324.966 372.377 325.205C372.172 325.445 372.03 325.732 371.965 326.041L370.376 333.61C370.32 333.885 370.325 334.169 370.391 334.441C370.458 334.714 370.584 334.968 370.761 335.185Z" fill="#2F2E41"/>
<path d="M469.444 327.803H471.86C472.063 327.803 472.228 327.638 472.228 327.434V326.274C472.228 326.07 472.063 325.905 471.86 325.905H469.444C469.241 325.905 469.076 326.07 469.076 326.274V327.434C469.076 327.638 469.241 327.803 469.444 327.803Z" fill="#3F3D56"/>
<path d="M463.141 327.803H465.558C465.761 327.803 465.925 327.638 465.925 327.434V326.274C465.925 326.07 465.761 325.905 465.558 325.905H463.141C462.938 325.905 462.774 326.07 462.774 326.274V327.434C462.774 327.638 462.938 327.803 463.141 327.803Z" fill="#3F3D56"/>
<path d="M456.838 327.803H459.255C459.458 327.803 459.622 327.638 459.622 327.434V326.274C459.622 326.07 459.458 325.905 459.255 325.905H456.838C456.635 325.905 456.471 326.07 456.471 326.274V327.434C456.471 327.638 456.635 327.803 456.838 327.803Z" fill="#3F3D56"/>
<path d="M450.535 327.803H452.952C453.155 327.803 453.319 327.638 453.319 327.434V326.274C453.319 326.07 453.155 325.905 452.952 325.905H450.535C450.332 325.905 450.168 326.07 450.168 326.274V327.434C450.168 327.638 450.332 327.803 450.535 327.803Z" fill="#3F3D56"/>
<path d="M444.233 327.803H446.649C446.852 327.803 447.017 327.638 447.017 327.434V326.274C447.017 326.07 446.852 325.905 446.649 325.905H444.233C444.03 325.905 443.865 326.07 443.865 326.274V327.434C443.865 327.638 444.03 327.803 444.233 327.803Z" fill="#3F3D56"/>
<path d="M437.93 327.803H440.347C440.549 327.803 440.714 327.638 440.714 327.434V326.274C440.714 326.07 440.549 325.905 440.347 325.905H437.93C437.727 325.905 437.562 326.07 437.562 326.274V327.434C437.562 327.638 437.727 327.803 437.93 327.803Z" fill="#3F3D56"/>
<path d="M431.627 327.803H434.044C434.247 327.803 434.411 327.638 434.411 327.434V326.274C434.411 326.07 434.247 325.905 434.044 325.905H431.627C431.424 325.905 431.26 326.07 431.26 326.274V327.434C431.26 327.638 431.424 327.803 431.627 327.803Z" fill="#3F3D56"/>
<path d="M425.324 327.803H427.741C427.944 327.803 428.108 327.638 428.108 327.434V326.274C428.108 326.07 427.944 325.905 427.741 325.905H425.324C425.121 325.905 424.957 326.07 424.957 326.274V327.434C424.957 327.638 425.121 327.803 425.324 327.803Z" fill="#3F3D56"/>
<path d="M419.021 327.803H421.438C421.641 327.803 421.805 327.638 421.805 327.434V326.274C421.805 326.07 421.641 325.905 421.438 325.905H419.021C418.819 325.905 418.654 326.07 418.654 326.274V327.434C418.654 327.638 418.819 327.803 419.021 327.803Z" fill="#3F3D56"/>
<path d="M412.719 327.803H415.135C415.338 327.803 415.503 327.638 415.503 327.434V326.274C415.503 326.07 415.338 325.905 415.135 325.905H412.719C412.516 325.905 412.351 326.07 412.351 326.274V327.434C412.351 327.638 412.516 327.803 412.719 327.803Z" fill="#3F3D56"/>
<path d="M406.416 327.803H408.832C409.035 327.803 409.2 327.638 409.2 327.434V326.274C409.2 326.07 409.035 325.905 408.832 325.905H406.416C406.213 325.905 406.048 326.07 406.048 326.274V327.434C406.048 327.638 406.213 327.803 406.416 327.803Z" fill="#3F3D56"/>
<path d="M400.113 327.803H402.53C402.732 327.803 402.897 327.638 402.897 327.434V326.274C402.897 326.07 402.732 325.905 402.53 325.905H400.113C399.91 325.905 399.746 326.07 399.746 326.274V327.434C399.746 327.638 399.91 327.803 400.113 327.803Z" fill="#3F3D56"/>
<path d="M393.81 327.803H396.227C396.43 327.803 396.594 327.638 396.594 327.434V326.274C396.594 326.07 396.43 325.905 396.227 325.905H393.81C393.607 325.905 393.443 326.07 393.443 326.274V327.434C393.443 327.638 393.607 327.803 393.81 327.803Z" fill="#3F3D56"/>
<path d="M387.507 327.803H389.924C390.127 327.803 390.292 327.638 390.292 327.434V326.274C390.292 326.07 390.127 325.905 389.924 325.905H387.507C387.305 325.905 387.14 326.07 387.14 326.274V327.434C387.14 327.638 387.305 327.803 387.507 327.803Z" fill="#3F3D56"/>
<path d="M381.204 327.803H383.621C383.824 327.803 383.989 327.638 383.989 327.434V326.274C383.989 326.07 383.824 325.905 383.621 325.905H381.204C381.002 325.905 380.837 326.07 380.837 326.274V327.434C380.837 327.638 381.002 327.803 381.204 327.803Z" fill="#3F3D56"/>
<path d="M374.902 327.803H377.319C377.521 327.803 377.686 327.638 377.686 327.434V326.274C377.686 326.07 377.521 325.905 377.319 325.905H374.902C374.699 325.905 374.534 326.07 374.534 326.274V327.434C374.534 327.638 374.699 327.803 374.902 327.803Z" fill="#3F3D56"/>
<path d="M469.518 330.964H471.935C472.138 330.964 472.302 330.799 472.302 330.596V329.436C472.302 329.232 472.138 329.067 471.935 329.067H469.518C469.315 329.067 469.151 329.232 469.151 329.436V330.596C469.151 330.799 469.315 330.964 469.518 330.964Z" fill="#3F3D56"/>
<path d="M463.215 330.964H465.632C465.835 330.964 466 330.799 466 330.596V329.436C466 329.232 465.835 329.067 465.632 329.067H463.215C463.013 329.067 462.848 329.232 462.848 329.436V330.596C462.848 330.799 463.013 330.964 463.215 330.964Z" fill="#3F3D56"/>
<path d="M456.913 330.964H459.329C459.532 330.964 459.697 330.799 459.697 330.596V329.436C459.697 329.232 459.532 329.067 459.329 329.067H456.913C456.71 329.067 456.545 329.232 456.545 329.436V330.596C456.545 330.799 456.71 330.964 456.913 330.964Z" fill="#3F3D56"/>
<path d="M450.61 330.964H453.027C453.23 330.964 453.394 330.799 453.394 330.596V329.436C453.394 329.232 453.23 329.067 453.027 329.067H450.61C450.407 329.067 450.243 329.232 450.243 329.436V330.596C450.243 330.799 450.407 330.964 450.61 330.964Z" fill="#3F3D56"/>
<path d="M444.307 330.964H446.724C446.927 330.964 447.091 330.799 447.091 330.596V329.436C447.091 329.232 446.927 329.067 446.724 329.067H444.307C444.104 329.067 443.94 329.232 443.94 329.436V330.596C443.94 330.799 444.104 330.964 444.307 330.964Z" fill="#3F3D56"/>
<path d="M438.004 330.964H440.421C440.624 330.964 440.788 330.799 440.788 330.596V329.436C440.788 329.232 440.624 329.067 440.421 329.067H438.004C437.801 329.067 437.637 329.232 437.637 329.436V330.596C437.637 330.799 437.801 330.964 438.004 330.964Z" fill="#3F3D56"/>
<path d="M431.701 330.964H434.118C434.321 330.964 434.485 330.799 434.485 330.596V329.436C434.485 329.232 434.321 329.067 434.118 329.067H431.701C431.498 329.067 431.334 329.232 431.334 329.436V330.596C431.334 330.799 431.498 330.964 431.701 330.964Z" fill="#3F3D56"/>
<path d="M425.399 330.964H427.815C428.018 330.964 428.183 330.799 428.183 330.596V329.436C428.183 329.232 428.018 329.067 427.815 329.067H425.399C425.196 329.067 425.031 329.232 425.031 329.436V330.596C425.031 330.799 425.196 330.964 425.399 330.964Z" fill="#3F3D56"/>
<path d="M419.096 330.964H421.513C421.715 330.964 421.88 330.799 421.88 330.596V329.436C421.88 329.232 421.715 329.067 421.513 329.067H419.096C418.893 329.067 418.728 329.232 418.728 329.436V330.596C418.728 330.799 418.893 330.964 419.096 330.964Z" fill="#3F3D56"/>
<path d="M412.793 330.964H415.21C415.413 330.964 415.577 330.799 415.577 330.596V329.436C415.577 329.232 415.413 329.067 415.21 329.067H412.793C412.59 329.067 412.426 329.232 412.426 329.436V330.596C412.426 330.799 412.59 330.964 412.793 330.964Z" fill="#3F3D56"/>
<path d="M406.49 330.964H408.907C409.11 330.964 409.274 330.799 409.274 330.596V329.436C409.274 329.232 409.11 329.067 408.907 329.067H406.49C406.287 329.067 406.123 329.232 406.123 329.436V330.596C406.123 330.799 406.287 330.964 406.49 330.964Z" fill="#3F3D56"/>
<path d="M400.187 330.964H402.604C402.807 330.964 402.971 330.799 402.971 330.596V329.436C402.971 329.232 402.807 329.067 402.604 329.067H400.187C399.984 329.067 399.82 329.232 399.82 329.436V330.596C399.82 330.799 399.984 330.964 400.187 330.964Z" fill="#3F3D56"/>
<path d="M393.885 330.964H396.301C396.504 330.964 396.669 330.799 396.669 330.596V329.436C396.669 329.232 396.504 329.067 396.301 329.067H393.885C393.682 329.067 393.517 329.232 393.517 329.436V330.596C393.517 330.799 393.682 330.964 393.885 330.964Z" fill="#3F3D56"/>
<path d="M387.582 330.964H389.999C390.201 330.964 390.366 330.799 390.366 330.596V329.436C390.366 329.232 390.201 329.067 389.999 329.067H387.582C387.379 329.067 387.215 329.232 387.215 329.436V330.596C387.215 330.799 387.379 330.964 387.582 330.964Z" fill="#3F3D56"/>
<path d="M381.279 330.964H383.696C383.899 330.964 384.063 330.799 384.063 330.596V329.436C384.063 329.232 383.899 329.067 383.696 329.067H381.279C381.076 329.067 380.912 329.232 380.912 329.436V330.596C380.912 330.799 381.076 330.964 381.279 330.964Z" fill="#3F3D56"/>
<path d="M374.976 330.964H377.393C377.596 330.964 377.76 330.799 377.76 330.596V329.436C377.76 329.232 377.596 329.067 377.393 329.067H374.976C374.773 329.067 374.609 329.232 374.609 329.436V330.596C374.609 330.799 374.773 330.964 374.976 330.964Z" fill="#3F3D56"/>
<path d="M417.205 334.759H441.682C441.884 334.759 442.049 334.594 442.049 334.39V333.23C442.049 333.027 441.884 332.862 441.682 332.862H417.205C417.002 332.862 416.838 333.027 416.838 333.23V334.39C416.838 334.594 417.002 334.759 417.205 334.759Z" fill="#3F3D56"/>
<path d="M391.273 270.812H389.133C388.484 270.812 387.958 271.34 387.958 271.991C387.958 272.642 388.484 273.169 389.133 273.169H391.273C391.921 273.169 392.447 272.642 392.447 271.991C392.447 271.34 391.921 270.812 391.273 270.812Z" fill="white"/>
<path d="M415.743 270.812H413.603C412.955 270.812 412.429 271.34 412.429 271.991C412.429 272.642 412.955 273.169 413.603 273.169H415.743C416.392 273.169 416.917 272.642 416.917 271.991C416.917 271.34 416.392 270.812 415.743 270.812Z" fill="white"/>
<path d="M422.676 270.812H420.537C419.888 270.812 419.362 271.34 419.362 271.991C419.362 272.642 419.888 273.169 420.537 273.169H422.676C423.325 273.169 423.851 272.642 423.851 271.991C423.851 271.34 423.325 270.812 422.676 270.812Z" fill="white"/>
<path d="M409.087 270.616H395.789C395.14 270.616 394.615 271.143 394.615 271.794C394.615 272.445 395.14 272.973 395.789 272.973H409.087C409.736 272.973 410.261 272.445 410.261 271.794C410.261 271.143 409.736 270.616 409.087 270.616Z" fill="white"/>
<path d="M441.714 270.616H428.416C427.767 270.616 427.241 271.143 427.241 271.794C427.241 272.445 427.767 272.973 428.416 272.973H441.714C442.363 272.973 442.888 272.445 442.888 271.794C442.888 271.143 442.363 270.616 441.714 270.616Z" fill="white"/>
<path d="M397.798 276.132H395.658C395.01 276.132 394.484 276.659 394.484 277.31C394.484 277.961 395.01 278.489 395.658 278.489H397.798C398.447 278.489 398.973 277.961 398.973 277.31C398.973 276.659 398.447 276.132 397.798 276.132Z" fill="white"/>
<path d="M422.268 276.132H420.129C419.48 276.132 418.954 276.659 418.954 277.31C418.954 277.961 419.48 278.489 420.129 278.489H422.268C422.917 278.489 423.443 277.961 423.443 277.31C423.443 276.659 422.917 276.132 422.268 276.132Z" fill="white"/>
<path d="M429.202 276.132H427.062C426.413 276.132 425.887 276.659 425.887 277.31C425.887 277.961 426.413 278.489 427.062 278.489H429.202C429.85 278.489 430.376 277.961 430.376 277.31C430.376 276.659 429.85 276.132 429.202 276.132Z" fill="white"/>
<path d="M415.613 275.935H402.315C401.666 275.935 401.14 276.463 401.14 277.114C401.14 277.765 401.666 278.292 402.315 278.292H415.613C416.261 278.292 416.787 277.765 416.787 277.114C416.787 276.463 416.261 275.935 415.613 275.935Z" fill="white"/>
<path d="M448.239 275.935H434.941C434.293 275.935 433.767 276.463 433.767 277.114C433.767 277.765 434.293 278.292 434.941 278.292H448.239C448.888 278.292 449.414 277.765 449.414 277.114C449.414 276.463 448.888 275.935 448.239 275.935Z" fill="white"/>
<path d="M404.323 281.451H402.184C401.535 281.451 401.009 281.979 401.009 282.63C401.009 283.281 401.535 283.808 402.184 283.808H404.323C404.972 283.808 405.498 283.281 405.498 282.63C405.498 281.979 404.972 281.451 404.323 281.451Z" fill="white"/>
<path d="M428.794 281.451H426.654C426.005 281.451 425.479 281.979 425.479 282.63C425.479 283.281 426.005 283.808 426.654 283.808H428.794C429.442 283.808 429.968 283.281 429.968 282.63C429.968 281.979 429.442 281.451 428.794 281.451Z" fill="white"/>
<path d="M435.727 281.451H433.587C432.939 281.451 432.413 281.979 432.413 282.63C432.413 283.281 432.939 283.808 433.587 283.808H435.727C436.376 283.808 436.901 283.281 436.901 282.63C436.901 281.979 436.376 281.451 435.727 281.451Z" fill="white"/>
<path d="M422.138 281.255H408.84C408.191 281.255 407.665 281.783 407.665 282.433C407.665 283.084 408.191 283.612 408.84 283.612H422.138C422.786 283.612 423.312 283.084 423.312 282.433C423.312 281.783 422.786 281.255 422.138 281.255Z" fill="white"/>
<path d="M454.765 281.255H441.467C440.818 281.255 440.292 281.783 440.292 282.433C440.292 283.084 440.818 283.612 441.467 283.612H454.765C455.413 283.612 455.939 283.084 455.939 282.433C455.939 281.783 455.413 281.255 454.765 281.255Z" fill="white"/>
<path d="M410.849 286.771H408.709C408.061 286.771 407.535 287.299 407.535 287.949C407.535 288.6 408.061 289.128 408.709 289.128H410.849C411.497 289.128 412.023 288.6 412.023 287.949C412.023 287.299 411.497 286.771 410.849 286.771Z" fill="white"/>
<path d="M435.319 286.771H433.179C432.531 286.771 432.005 287.299 432.005 287.949C432.005 288.6 432.531 289.128 433.179 289.128H435.319C435.968 289.128 436.494 288.6 436.494 287.949C436.494 287.299 435.968 286.771 435.319 286.771Z" fill="white"/>
<path d="M442.252 286.771H440.113C439.464 286.771 438.938 287.299 438.938 287.949C438.938 288.6 439.464 289.128 440.113 289.128H442.252C442.901 289.128 443.427 288.6 443.427 287.949C443.427 287.299 442.901 286.771 442.252 286.771Z" fill="white"/>
<path d="M428.663 286.574H415.365C414.717 286.574 414.191 287.102 414.191 287.753C414.191 288.404 414.717 288.931 415.365 288.931H428.663C429.312 288.931 429.838 288.404 429.838 287.753C429.838 287.102 429.312 286.574 428.663 286.574Z" fill="white"/>
<path d="M415.743 307.924H413.603C412.955 307.924 412.429 308.451 412.429 309.102C412.429 309.753 412.955 310.281 413.603 310.281H415.743C416.392 310.281 416.917 309.753 416.917 309.102C416.917 308.451 416.392 307.924 415.743 307.924Z" fill="white"/>
<path d="M422.676 307.924H420.537C419.888 307.924 419.362 308.451 419.362 309.102C419.362 309.753 419.888 310.281 420.537 310.281H422.676C423.325 310.281 423.851 309.753 423.851 309.102C423.851 308.451 423.325 307.924 422.676 307.924Z" fill="white"/>
<path d="M441.714 308.12H428.416C427.767 308.12 427.241 308.648 427.241 309.299C427.241 309.95 427.767 310.477 428.416 310.477H441.714C442.363 310.477 442.888 309.95 442.888 309.299C442.888 308.648 442.363 308.12 441.714 308.12Z" fill="white"/>
<path d="M391.273 307.924H389.133C388.484 307.924 387.958 308.451 387.958 309.102C387.958 309.753 388.484 310.281 389.133 310.281H391.273C391.921 310.281 392.447 309.753 392.447 309.102C392.447 308.451 391.921 307.924 391.273 307.924Z" fill="white"/>
<path d="M409.087 308.12H395.789C395.14 308.12 394.615 308.648 394.615 309.299C394.615 309.95 395.14 310.477 395.789 310.477H409.087C409.736 310.477 410.261 309.95 410.261 309.299C410.261 308.648 409.736 308.12 409.087 308.12Z" fill="white"/>
<path d="M397.798 302.604H395.658C395.01 302.604 394.484 303.132 394.484 303.783C394.484 304.433 395.01 304.961 395.658 304.961H397.798C398.447 304.961 398.973 304.433 398.973 303.783C398.973 303.132 398.447 302.604 397.798 302.604Z" fill="white"/>
<path d="M422.268 302.604H420.129C419.48 302.604 418.954 303.132 418.954 303.783C418.954 304.433 419.48 304.961 420.129 304.961H422.268C422.917 304.961 423.443 304.433 423.443 303.783C423.443 303.132 422.917 302.604 422.268 302.604Z" fill="white"/>
<path d="M429.202 302.604H427.062C426.413 302.604 425.887 303.132 425.887 303.783C425.887 304.433 426.413 304.961 427.062 304.961H429.202C429.85 304.961 430.376 304.433 430.376 303.783C430.376 303.132 429.85 302.604 429.202 302.604Z" fill="white"/>
<path d="M415.613 302.801H402.315C401.666 302.801 401.14 303.328 401.14 303.979C401.14 304.63 401.666 305.158 402.315 305.158H415.613C416.261 305.158 416.787 304.63 416.787 303.979C416.787 303.328 416.261 302.801 415.613 302.801Z" fill="white"/>
<path d="M404.323 297.285H402.184C401.535 297.285 401.009 297.812 401.009 298.463C401.009 299.114 401.535 299.642 402.184 299.642H404.323C404.972 299.642 405.498 299.114 405.498 298.463C405.498 297.812 404.972 297.285 404.323 297.285Z" fill="white"/>
<path d="M428.794 297.285H426.654C426.005 297.285 425.479 297.812 425.479 298.463C425.479 299.114 426.005 299.642 426.654 299.642H428.794C429.442 299.642 429.968 299.114 429.968 298.463C429.968 297.812 429.442 297.285 428.794 297.285Z" fill="white"/>
<path d="M435.727 297.285H433.587C432.939 297.285 432.413 297.812 432.413 298.463C432.413 299.114 432.939 299.642 433.587 299.642H435.727C436.376 299.642 436.901 299.114 436.901 298.463C436.901 297.812 436.376 297.285 435.727 297.285Z" fill="white"/>
<path d="M422.138 297.481H408.84C408.191 297.481 407.665 298.009 407.665 298.66C407.665 299.31 408.191 299.838 408.84 299.838H422.138C422.786 299.838 423.312 299.31 423.312 298.66C423.312 298.009 422.786 297.481 422.138 297.481Z" fill="white"/>
<path d="M410.849 291.965H408.709C408.061 291.965 407.535 292.493 407.535 293.144C407.535 293.794 408.061 294.322 408.709 294.322H410.849C411.497 294.322 412.023 293.794 412.023 293.144C412.023 292.493 411.497 291.965 410.849 291.965Z" fill="white"/>
<path d="M435.319 291.965H433.179C432.531 291.965 432.005 292.493 432.005 293.144C432.005 293.794 432.531 294.322 433.179 294.322H435.319C435.968 294.322 436.494 293.794 436.494 293.144C436.494 292.493 435.968 291.965 435.319 291.965Z" fill="white"/>
<path d="M442.252 291.965H440.113C439.464 291.965 438.938 292.493 438.938 293.144C438.938 293.794 439.464 294.322 440.113 294.322H442.252C442.901 294.322 443.427 293.794 443.427 293.144C443.427 292.493 442.901 291.965 442.252 291.965Z" fill="white"/>
<path d="M428.663 292.161H415.365C414.717 292.161 414.191 292.689 414.191 293.34C414.191 293.991 414.717 294.518 415.365 294.518H428.663C429.312 294.518 429.838 293.991 429.838 293.34C429.838 292.689 429.312 292.161 428.663 292.161Z" fill="white"/>
<path d="M379.898 370.267L369.854 354.337L401.38 329.121L414.393 314.656C416.084 312.777 418.237 311.376 420.636 310.593C423.035 309.81 425.598 309.672 428.067 310.194C430.536 310.716 432.825 311.879 434.706 313.566C436.587 315.254 437.993 317.407 438.785 319.811C439.957 323.373 439.705 327.253 438.081 330.632C436.457 334.011 433.588 336.625 430.079 337.922L409.502 345.528L379.898 370.267Z" fill="#FFB6B6"/>
<path d="M144.227 254.766V332.189H198.286V254.766C198.287 254.209 198.11 253.666 197.781 253.218C197.452 252.77 196.988 252.439 196.458 252.275C196.208 252.192 195.946 252.151 195.683 252.154H146.838C146.495 252.153 146.156 252.22 145.839 252.351C145.523 252.482 145.235 252.674 144.993 252.917C144.75 253.16 144.558 253.448 144.426 253.765C144.295 254.082 144.227 254.422 144.227 254.766ZM165.324 281.369C165.338 279.842 165.952 278.383 167.033 277.309C168.114 276.235 169.574 275.632 171.095 275.632C172.616 275.632 174.076 276.235 175.157 277.309C176.237 278.383 176.852 279.842 176.866 281.369V290.352C176.858 291.883 176.247 293.348 175.165 294.427C174.084 295.507 172.62 296.113 171.095 296.113C169.569 296.113 168.106 295.507 167.025 294.427C165.943 293.348 165.332 291.883 165.324 290.352V281.369Z" fill="#2F2E41"/>
<path d="M144.061 329.713V337.179C144.062 337.566 144.216 337.936 144.487 338.21C144.759 338.485 145.128 338.64 145.513 338.643H197C197.386 338.641 197.755 338.486 198.027 338.212C198.299 337.937 198.452 337.566 198.452 337.179V329.713H144.061Z" fill="#3F3D56"/>
<path d="M59.1833 138.118V279.481C59.1848 281.283 59.8987 283.01 61.1683 284.284C62.4379 285.558 64.1594 286.274 65.9549 286.276H274.745C276.54 286.274 278.262 285.558 279.531 284.284C280.801 283.01 281.515 281.283 281.516 279.481V138.118C281.512 136.318 280.797 134.593 279.528 133.321C278.259 132.049 276.539 131.334 274.745 131.331H65.9549C64.161 131.334 62.4411 132.049 61.1719 133.321C59.9027 134.593 59.1876 136.318 59.1833 138.118Z" fill="#3F3D56"/>
<path d="M64.0815 139.877V277.738C64.0832 278.7 64.465 279.623 65.1433 280.303C65.8217 280.984 66.7412 281.367 67.7006 281.369H273.007C273.966 281.367 274.886 280.984 275.564 280.303C276.242 279.623 276.624 278.7 276.626 277.738V139.877C276.626 138.913 276.245 137.989 275.566 137.307C274.888 136.625 273.967 136.24 273.007 136.238H67.7006C66.7401 136.24 65.8196 136.625 65.1412 137.307C64.4627 137.989 64.0816 138.913 64.0815 139.877Z" fill="white"/>
<path d="M102.183 338.137C102.392 338.4 102.657 338.612 102.96 338.757C103.262 338.903 103.593 338.977 103.928 338.975H226.072C226.406 338.975 226.736 338.9 227.038 338.756C227.339 338.611 227.605 338.401 227.815 338.141C228.026 337.881 228.175 337.577 228.254 337.251C228.333 336.925 228.338 336.586 228.269 336.258L226.373 327.222C226.295 326.853 226.125 326.51 225.881 326.224C225.637 325.938 225.325 325.718 224.974 325.583C224.72 325.483 224.449 325.432 224.176 325.432H105.817C105.544 325.432 105.273 325.483 105.019 325.583C104.668 325.718 104.357 325.938 104.112 326.224C103.868 326.51 103.698 326.853 103.62 327.222L101.724 336.258C101.656 336.586 101.663 336.924 101.742 337.25C101.821 337.575 101.972 337.878 102.183 338.137Z" fill="#2F2E41"/>
<path d="M266.344 155.229H74.2398C74.0402 155.225 73.8502 155.142 73.7105 154.999C73.5709 154.856 73.4927 154.663 73.4927 154.463C73.4927 154.262 73.5709 154.07 73.7105 153.927C73.8502 153.783 74.0402 153.701 74.2398 153.696H266.344C266.544 153.701 266.734 153.783 266.873 153.927C267.013 154.07 267.091 154.262 267.091 154.463C267.091 154.663 267.013 154.856 266.873 154.999C266.734 155.142 266.544 155.225 266.344 155.229Z" fill="#3F3D56"/>
<path d="M87.3164 149.783C89.7891 149.783 91.7935 147.727 91.7935 145.191C91.7935 142.654 89.7891 140.598 87.3164 140.598C84.8438 140.598 82.8394 142.654 82.8394 145.191C82.8394 147.727 84.8438 149.783 87.3164 149.783Z" fill="#3F3D56"/>
<path d="M102.783 149.783C105.255 149.783 107.26 147.727 107.26 145.191C107.26 142.654 105.255 140.598 102.783 140.598C100.31 140.598 98.3057 142.654 98.3057 145.191C98.3057 147.727 100.31 149.783 102.783 149.783Z" fill="#3F3D56"/>
<path d="M118.249 149.783C120.722 149.783 122.726 147.727 122.726 145.191C122.726 142.654 120.722 140.598 118.249 140.598C115.776 140.598 113.772 142.654 113.772 145.191C113.772 147.727 115.776 149.783 118.249 149.783Z" fill="#3F3D56"/>
<path d="M257.031 141.734H246.046C245.829 141.739 245.622 141.829 245.47 141.985C245.318 142.141 245.233 142.35 245.233 142.568C245.233 142.786 245.318 142.995 245.47 143.151C245.622 143.307 245.829 143.397 246.046 143.402H257.031C257.249 143.399 257.458 143.31 257.611 143.154C257.764 142.998 257.85 142.787 257.85 142.568C257.85 142.349 257.764 142.139 257.611 141.982C257.458 141.826 257.249 141.737 257.031 141.734Z" fill="#3F3D56"/>
<path d="M257.031 144.867H246.046C245.828 144.872 245.622 144.962 245.47 145.118C245.318 145.274 245.232 145.483 245.232 145.701C245.232 145.919 245.318 146.129 245.47 146.284C245.622 146.44 245.828 146.53 246.046 146.535H257.031C257.249 146.533 257.458 146.443 257.612 146.287C257.766 146.131 257.852 145.921 257.852 145.701C257.852 145.482 257.766 145.271 257.612 145.115C257.458 144.959 257.249 144.869 257.031 144.867Z" fill="#3F3D56"/>
<path d="M257.031 148H246.046C245.829 148.005 245.622 148.095 245.47 148.251C245.318 148.407 245.233 148.616 245.233 148.834C245.233 149.052 245.318 149.261 245.47 149.417C245.622 149.573 245.829 149.663 246.046 149.668H257.031C257.249 149.665 257.458 149.576 257.611 149.42C257.764 149.263 257.85 149.053 257.85 148.834C257.85 148.615 257.764 148.404 257.611 148.248C257.458 148.092 257.249 148.003 257.031 148Z" fill="#3F3D56"/>
<path d="M521.858 332.989C522.19 333.958 522.819 334.796 523.655 335.383C524.49 335.971 525.49 336.277 526.511 336.259L546.443 335.744C547.471 335.724 548.464 335.371 549.276 334.737C550.087 334.103 550.672 333.223 550.943 332.229L553.764 301.967C554.764 302.421 555.854 302.646 556.952 302.624C557.906 302.6 558.847 302.388 559.719 301.999C560.592 301.61 561.379 301.053 562.037 300.359C562.695 299.665 563.21 298.848 563.553 297.954C563.896 297.06 564.061 296.107 564.037 295.15C564.013 294.192 563.801 293.249 563.414 292.374C563.026 291.498 562.471 290.708 561.779 290.048C561.087 289.388 560.273 288.871 559.382 288.527C558.491 288.183 557.542 288.018 556.587 288.042C556.148 288.04 555.71 288.086 555.281 288.178C554.814 287.671 554.247 287.268 553.615 286.995C552.983 286.721 552.302 286.584 551.614 286.591L520.953 287.385C520.699 287.394 520.446 287.426 520.197 287.479C519.525 287.605 518.887 287.874 518.327 288.267C517.767 288.661 517.297 289.171 516.95 289.762C516.602 290.353 516.385 291.012 516.313 291.695C516.24 292.377 516.315 293.067 516.53 293.718L521.858 332.989ZM554.342 299.912L556.349 292.7C556.577 291.867 556.583 290.989 556.364 290.153C556.462 290.153 556.548 290.106 556.645 290.106C558.021 290.078 559.353 290.598 560.347 291.553C561.342 292.507 561.918 293.819 561.951 295.2C561.983 296.58 561.468 297.918 560.519 298.918C559.57 299.919 558.265 300.501 556.889 300.537C555.999 300.565 555.118 300.349 554.342 299.912Z" fill="#2F2E41"/>
<path d="M520.197 287.479C520.85 291.226 528.194 293.861 537.025 293.403C545.145 293.028 551.785 290.167 553.002 286.776C552.551 286.642 552.083 286.58 551.614 286.59L520.953 287.385C520.699 287.394 520.446 287.426 520.197 287.479Z" fill="#3F3D56"/>
<path d="M538.643 316.36C538.684 316.35 538.722 316.333 538.757 316.31L543.086 313.467C543.138 313.433 543.181 313.386 543.211 313.331C543.24 313.276 543.256 313.214 543.256 313.152C543.256 313.089 543.241 313.027 543.211 312.972C543.181 312.917 543.138 312.87 543.086 312.836L538.587 309.879C538.545 309.852 538.499 309.833 538.45 309.823C538.402 309.814 538.352 309.814 538.303 309.824C538.255 309.834 538.209 309.854 538.168 309.882C538.127 309.91 538.092 309.945 538.065 309.987C538.038 310.029 538.019 310.075 538.01 310.124C538.001 310.173 538.001 310.223 538.011 310.272C538.021 310.32 538.041 310.366 538.069 310.407C538.097 310.448 538.133 310.483 538.174 310.51L542.193 313.151L538.345 315.678C538.271 315.727 538.216 315.801 538.19 315.887C538.165 315.972 538.171 316.064 538.207 316.146C538.242 316.228 538.306 316.294 538.386 316.333C538.466 316.373 538.557 316.382 538.643 316.36Z" fill="#6C63FF"/>
<path d="M531.806 316.677C531.879 316.658 531.945 316.618 531.995 316.562C532.045 316.506 532.077 316.436 532.087 316.362C532.097 316.287 532.085 316.212 532.052 316.144C532.019 316.077 531.966 316.021 531.901 315.983L527.911 313.688L531.768 310.814C531.807 310.784 531.841 310.747 531.866 310.705C531.892 310.662 531.908 310.615 531.916 310.566C531.923 310.517 531.92 310.467 531.908 310.419C531.896 310.371 531.875 310.326 531.845 310.286C531.816 310.246 531.779 310.213 531.737 310.187C531.694 310.162 531.647 310.145 531.598 310.138C531.55 310.131 531.5 310.133 531.452 310.145C531.404 310.157 531.359 310.179 531.319 310.208L527.002 313.426C526.951 313.464 526.911 313.513 526.885 313.57C526.859 313.626 526.847 313.689 526.85 313.751C526.854 313.814 526.873 313.875 526.906 313.928C526.939 313.981 526.984 314.025 527.039 314.056L531.527 316.638C531.612 316.687 531.712 316.701 531.806 316.677Z" fill="#6C63FF"/>
<path d="M538.213 318.851C538.249 318.842 538.284 318.828 538.316 318.808C538.358 318.782 538.395 318.748 538.424 318.708C538.453 318.668 538.474 318.623 538.486 318.575C538.498 318.526 538.5 318.476 538.492 318.427C538.485 318.378 538.468 318.331 538.442 318.289L532.306 308.167C532.254 308.082 532.17 308.02 532.073 307.997C531.976 307.973 531.874 307.989 531.789 308.042C531.704 308.094 531.643 308.177 531.619 308.275C531.595 308.372 531.611 308.474 531.663 308.56L537.799 318.682C537.841 318.751 537.904 318.804 537.978 318.835C538.053 318.865 538.135 318.871 538.213 318.851Z" fill="#6C63FF"/>
<path d="M193.245 196.9H159.996C158.64 196.9 157.54 198.003 157.54 199.364V202.623C157.54 203.984 158.64 205.087 159.996 205.087H193.245C194.601 205.087 195.701 203.984 195.701 202.623V199.364C195.701 198.003 194.601 196.9 193.245 196.9Z" fill="#6C63FF"/>
<path d="M212.626 213.275H140.615C139.259 213.275 138.159 214.378 138.159 215.739V218.998C138.159 220.359 139.259 221.462 140.615 221.462H212.626C213.982 221.462 215.082 220.359 215.082 218.998V215.739C215.082 214.378 213.982 213.275 212.626 213.275Z" fill="#E6E6E6"/>
<path d="M212.626 229.649H140.615C139.259 229.649 138.159 230.753 138.159 232.114V235.373C138.159 236.734 139.259 237.837 140.615 237.837H212.626C213.982 237.837 215.082 236.734 215.082 235.373V232.114C215.082 230.753 213.982 229.649 212.626 229.649Z" fill="#E6E6E6"/>
<path d="M218.73 284.483L218.893 284.999L218.902 285.017L223.811 299.992L229.459 317.25L240.085 349.682L240.188 354.72V354.737L240.977 395.264L238.789 400.758L241.252 409.766C241.252 409.766 240.119 396.149 234.042 403.969C230.6 408.413 226.575 412.96 223.27 417.222C228.086 419.177 232.978 420.946 237.948 422.527C239.02 422.872 240.102 423.199 241.183 423.526C241.415 423.595 241.647 423.664 241.879 423.733C258.352 428.621 275.383 431.367 292.553 431.905C293.446 431.931 294.321 431.948 295.171 431.966C295.471 431.974 295.763 431.983 296.055 431.983C297.016 431.991 297.969 432 298.93 432C300.87 432 302.801 431.971 304.724 431.914C318.954 431.512 333.101 429.592 346.927 426.187C346.832 420.46 346.575 413.769 346.206 406.621C346.034 403.116 342.18 399.319 341.949 395.65C341.786 392.894 345.245 390.302 345.064 387.503C343.897 370.271 342.438 376.886 341.356 364.683C341.245 363.486 341.142 362.341 341.047 361.247C340.352 353.411 339.872 348.511 339.872 348.511L344.489 319.308L351.742 273.46L351.184 272.538L350.558 272.228L312.303 253.231L310.226 247.892C309.62 246.353 308.57 245.032 307.211 244.097C305.851 243.163 304.243 242.658 302.595 242.647L277.395 242.544C276.088 242.538 274.797 242.845 273.631 243.439C272.466 244.034 271.458 244.899 270.692 245.963L263.868 255.444L218.73 284.483Z" fill="#3F3D56"/>
<path d="M245.895 342.465L240.188 354.72L236.291 363.09L229.588 398.304L226.232 401.877L223.356 389.226L193.262 395.93C192.275 390.427 192.998 396.116 192.388 390.079C192.56 389.907 192.74 389.735 192.921 389.563C193.401 389.115 193.805 388.693 193.796 388.288C193.453 367.465 194.483 332.028 203.083 310.559C204.43 307.054 206.206 303.73 208.37 300.664C208.542 300.432 208.705 300.199 208.868 299.966C212.833 294.395 215.34 288.909 218.893 285.008V284.999C218.915 284.981 218.935 284.961 218.953 284.939C218.966 284.933 218.978 284.924 218.987 284.913L243.398 271.927L244.445 301.448L245.192 322.667L245.895 342.465Z" fill="#3F3D56"/>
<path d="M333.914 345.946L341.044 361.252L343.532 366.582L350.234 401.792L353.579 405.357L356.461 392.708L357.815 392.43L382.237 387.355L389.355 410.037C390.959 407.355 391.591 404.199 391.144 401.104C390.697 398.008 389.198 395.162 386.901 393.047C386.415 392.606 386.01 392.176 386.021 391.77C386.427 367.279 384.933 322.558 371.45 304.151C367.167 298.31 364.598 292.492 360.859 288.428C360.847 288.416 360.847 288.404 360.836 288.404L351.739 273.459L351.183 272.541L350.558 272.228L333.914 345.946Z" fill="#3F3D56"/>
<path d="M290.723 235.348C309.239 235.348 324.249 220.288 324.249 201.711C324.249 183.134 309.239 168.074 290.723 168.074C272.208 168.074 257.198 183.134 257.198 201.711C257.198 220.288 272.208 235.348 290.723 235.348Z" fill="#FFB6B6"/>
<path d="M336.037 178.215C335.777 177.937 335.464 177.714 335.116 177.559C334.768 177.405 334.393 177.323 334.013 177.317L334.517 175.913C334.681 175.471 334.726 174.993 334.646 174.527C334.565 174.062 334.363 173.627 334.06 173.266C333.757 172.905 333.364 172.631 332.92 172.473C332.477 172.315 332 172.277 331.537 172.365L329.702 172.72L329.875 171.489C329.941 171.031 329.887 170.563 329.719 170.132C329.55 169.701 329.273 169.321 328.914 169.03C328.555 168.739 328.126 168.547 327.671 168.473C327.215 168.398 326.748 168.444 326.316 168.606C325.922 168.761 325.499 168.826 325.077 168.796C324.655 168.766 324.246 168.642 323.878 168.432C323.509 168.229 323.188 167.947 322.939 167.607C322.689 167.266 322.517 166.876 322.433 166.462L321.794 163.366L321.726 163.2C318.611 157.992 312.622 154.202 305.294 152.813C298.771 151.567 292.082 152.201 285.634 152.798C283.076 153.039 280.186 153.311 277.779 154.791C275.732 156.059 274.002 158.595 274.355 161.155C267.998 159.199 261.181 163.102 257.803 168.024C253.8 173.882 253.145 181.22 253.04 186.957C252.754 200.53 255.545 211.635 261.316 219.969C261.738 220.573 261.843 221.834 262.678 222.257L262.505 221.977C263.438 222.445 264.386 223.2 264.032 224.008C263.017 226.333 269.766 231.474 274.521 233.172C283.196 236.275 294.73 236.011 302.841 234.894L303.127 232.969C306.054 232.569 308.115 231.806 308.695 230.613C309.718 229.738 310.591 228.953 311.351 228.228L311.358 228.22C311.373 228.205 311.403 228.183 311.418 228.167C315.082 224.642 315.933 222.634 316.316 219.577C316.685 216.58 316.031 213.537 315.361 210.797C329.461 212.986 309.808 195.729 322.945 192.393C323.096 192.346 323.249 192.308 323.404 192.279C323.788 192.189 324.171 192.098 324.54 191.992C326.317 191.508 328.019 190.779 329.596 189.826C333.268 187.584 334.479 184.61 336.375 181.258C336.649 180.78 336.764 180.228 336.703 179.681C336.642 179.134 336.409 178.62 336.037 178.215Z" fill="#2F2E41"/>
<path d="M409.298 348.341C409.29 349.662 409.275 351.511 409.215 353.799C409.207 354.116 409.2 354.44 409.192 354.773C409.094 358.977 408.997 362.503 408.839 366.421C408.831 366.692 408.823 366.957 408.808 367.228C408.598 372.694 408.267 379.058 407.695 389.136C406.634 407.752 404.783 391.695 402.925 398.225C402.834 398.549 402.737 398.934 402.646 399.387C402.365 401.031 401.89 402.635 401.232 404.166C400.246 404.755 399.23 405.321 398.23 405.887C395.378 407.48 392.481 409.012 389.562 410.469C387.922 411.285 386.274 412.085 384.619 412.855C384.356 412.976 384.1 413.096 383.844 413.21C375.368 417.143 366.632 420.488 357.698 423.22C355.953 423.748 354.215 424.261 352.454 424.737C350.618 425.25 348.782 425.734 346.924 426.187C333.099 429.592 318.952 431.513 304.722 431.916C302.803 431.977 300.87 431.999 298.929 431.999C297.966 431.999 297.018 431.992 296.054 431.984C295.761 431.984 295.468 431.977 295.174 431.969C294.324 431.946 293.444 431.931 292.556 431.909C275.385 431.371 258.355 428.624 241.882 423.733L241.182 423.529C240.099 423.197 239.023 422.872 237.947 422.525C232.981 420.947 228.088 419.181 223.268 417.226C219.588 415.739 215.952 414.143 212.358 412.44C212.325 412.431 212.294 412.415 212.268 412.394C211.515 412.047 210.755 411.685 210.003 411.315C209.905 411.262 209.8 411.209 209.694 411.156C206.888 409.782 204.112 408.343 201.365 406.838C199.056 401.516 195.805 400.497 193.789 395.817C193.202 394.426 192.778 392.972 192.525 391.484C192.525 391.468 192.517 391.453 192.517 391.431C192.728 394.239 191.622 386.448 192.51 391.4C192.502 391.31 192.495 391.212 192.487 391.099C192.465 390.827 192.435 390.495 192.389 390.079C189.809 364.798 189.974 335.885 188.853 312.06C188.778 310.52 188.7 309.045 188.62 307.636C188.597 307.168 188.567 306.708 188.537 306.255C188.59 306.119 188.65 305.975 188.718 305.84C188.732 305.8 188.75 305.763 188.77 305.726C188.793 305.68 188.818 305.634 188.846 305.591C188.861 305.568 188.883 305.538 188.898 305.515C188.909 305.489 188.922 305.464 188.936 305.44C189.004 305.334 189.079 305.221 189.162 305.115C189.199 305.07 189.229 305.032 189.267 304.994C189.293 304.956 189.323 304.92 189.357 304.888C189.38 304.852 189.408 304.819 189.44 304.79C189.47 304.76 189.5 304.722 189.538 304.685C189.554 304.661 189.574 304.64 189.598 304.624C189.657 304.556 189.723 304.492 189.794 304.436C190.062 304.188 190.349 303.961 190.651 303.756C190.757 303.688 190.87 303.62 190.975 303.545C191.733 303.09 192.532 302.706 193.36 302.397C193.646 302.292 193.932 302.193 194.24 302.088C194.353 302.058 194.458 302.02 194.571 301.982C194.737 301.929 194.902 301.876 195.075 301.839C195.933 301.582 196.859 301.363 197.859 301.159C197.98 301.137 198.108 301.114 198.235 301.084C198.416 301.046 198.604 301.016 198.792 300.986C199.048 300.94 199.311 300.895 199.575 300.85C201.809 300.495 204.345 300.231 207.144 300.057C207.407 300.042 207.671 300.027 207.934 300.012C208.242 299.997 208.551 299.982 208.867 299.967C209.13 299.951 209.401 299.944 209.672 299.936C209.935 299.921 210.206 299.914 210.484 299.906C211.244 299.883 212.027 299.861 212.824 299.846C215.097 299.8 217.489 299.816 220.002 299.868C221.169 299.899 222.357 299.929 223.576 299.982C223.659 299.982 223.734 299.989 223.809 299.989C224.87 300.027 225.939 300.072 227.037 300.133C227.805 300.17 228.58 300.208 229.355 300.253C230.084 300.299 230.822 300.344 231.567 300.397C232.146 300.427 232.725 300.472 233.312 300.51C233.809 300.548 234.305 300.586 234.802 300.616L235.479 300.661C235.848 300.691 236.216 300.714 236.593 300.752C237.42 300.82 238.248 300.887 239.091 300.955C239.926 301.031 240.776 301.106 241.626 301.182C242.476 301.257 243.334 301.34 244.192 301.423C244.282 301.431 244.365 301.439 244.448 301.446C245.23 301.529 246.013 301.605 246.803 301.688C246.983 301.703 247.171 301.718 247.352 301.741C248.105 301.816 248.873 301.905 249.633 301.986C249.866 302.012 250.098 302.036 250.332 302.062C250.928 302.127 251.515 302.183 252.114 302.254C252.904 302.344 253.71 302.427 254.492 302.533C255.101 302.601 255.711 302.669 256.32 302.745C257.276 302.858 258.246 302.979 259.217 303.107C259.586 303.152 259.954 303.197 260.323 303.25C263.092 303.598 265.891 303.983 268.735 304.383C273.046 304.994 277.425 305.658 281.834 306.376C286.251 307.093 290.692 307.85 295.159 308.648C296.288 308.852 297.416 309.056 298.552 309.267C299.064 309.365 299.576 309.463 300.087 309.561C300.96 309.72 301.833 309.886 302.706 310.052C303.578 310.218 304.451 310.384 305.324 310.558C306.362 310.762 307.408 310.965 308.446 311.169C315.286 312.528 322.087 313.977 328.723 315.495C329.814 315.744 330.905 316.001 331.989 316.25C334.156 316.756 336.303 317.269 338.429 317.79C339.016 317.926 339.596 318.069 340.175 318.212C341.619 318.575 343.064 318.937 344.486 319.307L344.734 319.375C345.78 319.632 346.803 319.896 347.827 320.168C350.242 320.802 352.617 321.443 354.952 322.093C356.502 322.523 358.034 322.958 359.549 323.399C361.814 324.055 364.033 324.72 366.193 325.392C366.727 325.558 367.261 325.724 367.788 325.882C369.368 326.373 370.925 326.871 372.438 327.369C373.641 327.762 374.815 328.162 375.974 328.562C377.133 328.962 378.269 329.362 379.382 329.763C380.097 330.019 380.804 330.291 381.511 330.548C382.527 330.925 383.528 331.303 384.506 331.68C384.807 331.793 385.1 331.914 385.394 332.027C385.582 332.11 385.762 332.178 385.943 332.254C386.297 332.397 386.658 332.533 387.004 332.676C387.358 332.812 387.704 332.956 388.05 333.107C388.388 333.243 388.734 333.386 389.066 333.529C389.404 333.665 389.735 333.809 390.066 333.96C390.345 334.073 390.615 334.194 390.879 334.315C391.413 334.549 391.947 334.783 392.466 335.024C392.722 335.145 392.978 335.258 393.234 335.379L393.821 335.651C393.903 335.696 393.986 335.734 394.069 335.772C394.257 335.862 394.453 335.96 394.641 336.051C395.077 336.255 395.506 336.474 395.927 336.677C396.492 336.964 397.041 337.251 397.568 337.531C398.102 337.817 398.621 338.104 399.118 338.384C399.2 338.429 399.276 338.474 399.358 338.519C399.471 338.58 399.584 338.648 399.697 338.708C400.081 338.927 400.449 339.154 400.818 339.372C401.54 339.818 402.225 340.256 402.864 340.694C403.007 340.792 403.143 340.89 403.286 340.98C403.76 341.32 404.211 341.652 404.633 341.992C404.633 341.999 404.633 341.999 404.64 341.999C404.783 342.105 404.919 342.218 405.054 342.324C405.167 342.43 405.287 342.52 405.4 342.626C405.791 342.966 406.152 343.29 406.483 343.623C406.594 343.725 406.7 343.833 406.799 343.947C406.843 343.984 406.884 344.024 406.92 344.068C407.07 344.219 407.206 344.37 407.334 344.521C407.354 344.542 407.371 344.564 407.386 344.589C407.567 344.8 407.732 345.012 407.89 345.223C407.966 345.329 408.048 345.434 408.116 345.54C408.206 345.668 408.297 345.804 408.372 345.933C408.44 346.038 408.5 346.151 408.56 346.257C408.72 346.529 408.856 346.815 408.966 347.11C409.051 347.311 409.119 347.518 409.17 347.729C409.227 347.93 409.269 348.134 409.298 348.341Z" fill="#2F2E41"/>
<path opacity="0.2" d="M409.298 348.341C409.29 349.662 409.275 351.511 409.215 353.799C409.207 354.116 409.192 354.44 409.185 354.773C409.109 357.981 408.997 361.944 408.839 366.421C408.831 366.692 408.823 366.957 408.808 367.228C408.598 372.694 408.267 379.058 407.695 389.136C406.634 407.752 404.783 391.695 402.925 398.225C397.763 395.039 392.105 391.702 386.056 388.275C384.965 387.656 383.864 387.035 382.753 386.411C370.654 379.639 357.141 372.543 343.034 365.515C342.477 365.236 341.913 364.956 341.356 364.684C309.041 348.658 273.768 333.069 245.192 322.666C239.677 320.658 234.411 318.847 229.46 317.254C219.032 313.91 210.018 311.569 203.081 310.558C195.858 309.501 190.87 309.878 188.853 312.06C188.778 310.52 188.7 309.045 188.62 307.636C188.59 307.168 188.56 306.708 188.53 306.255C188.576 306.131 188.636 306.012 188.695 305.892C188.703 305.875 188.709 305.857 188.718 305.84C188.732 305.8 188.75 305.763 188.77 305.726C188.793 305.679 188.818 305.634 188.846 305.59C188.87 305.537 188.9 305.486 188.936 305.439C189.004 305.334 189.079 305.221 189.162 305.115C189.222 305.036 189.288 304.96 189.357 304.888C189.38 304.852 189.408 304.819 189.44 304.79C189.47 304.76 189.5 304.722 189.538 304.685C189.554 304.661 189.574 304.64 189.598 304.624C189.657 304.556 189.723 304.492 189.794 304.435C190.062 304.188 190.349 303.961 190.651 303.756C190.757 303.688 190.869 303.62 190.975 303.545C191.733 303.09 192.531 302.705 193.36 302.397C193.646 302.292 193.932 302.193 194.24 302.088C194.353 302.057 194.458 302.02 194.571 301.982C194.737 301.929 194.902 301.876 195.075 301.839C195.933 301.582 196.859 301.363 197.859 301.159C198.16 301.099 198.476 301.038 198.792 300.986C199.048 300.94 199.311 300.895 199.575 300.85C201.809 300.495 204.345 300.231 207.144 300.057C207.407 300.042 207.67 300.027 207.934 300.012C208.242 299.997 208.551 299.982 208.867 299.966C209.13 299.951 209.401 299.944 209.672 299.936C209.935 299.921 210.206 299.914 210.484 299.906C211.244 299.883 212.027 299.861 212.824 299.846C215.097 299.808 217.489 299.823 220.002 299.876C221.168 299.898 222.357 299.936 223.576 299.989C223.651 299.989 223.734 299.997 223.809 299.997C224.87 300.027 225.946 300.08 227.037 300.133C227.805 300.17 228.58 300.208 229.354 300.253C230.084 300.299 230.822 300.344 231.567 300.397C232.146 300.427 232.725 300.472 233.312 300.51C233.809 300.548 234.305 300.585 234.802 300.616C235.396 300.661 235.991 300.706 236.593 300.752C237.42 300.819 238.248 300.887 239.091 300.955C239.926 301.031 240.776 301.106 241.626 301.182C242.476 301.257 243.334 301.34 244.192 301.423C244.282 301.431 244.365 301.438 244.448 301.446C245.23 301.529 246.013 301.605 246.803 301.688C251.182 302.133 255.688 302.654 260.323 303.25C263.092 303.605 265.896 303.985 268.735 304.39C273.046 305.002 277.425 305.666 281.834 306.376C286.251 307.093 290.692 307.85 295.159 308.648C296.288 308.852 297.416 309.055 298.552 309.267C299.937 309.523 301.321 309.785 302.706 310.052C303.578 310.218 304.451 310.384 305.324 310.558C306.362 310.762 307.408 310.965 308.446 311.169C315.286 312.528 322.087 313.977 328.723 315.495C329.814 315.744 330.905 316.001 331.989 316.25C334.156 316.755 336.303 317.269 338.429 317.79C339.016 317.933 339.596 318.077 340.175 318.22C341.627 318.582 343.064 318.945 344.486 319.307V319.315C344.569 319.33 344.652 319.352 344.734 319.375C345.773 319.639 346.803 319.903 347.827 320.175C350.242 320.809 352.617 321.448 354.952 322.093C356.502 322.53 358.037 322.961 359.549 323.399C361.814 324.063 364.033 324.727 366.193 325.392C366.727 325.558 367.261 325.724 367.788 325.882C369.368 326.381 370.918 326.876 372.438 327.369C373.641 327.762 374.815 328.162 375.974 328.562C377.133 328.962 378.269 329.362 379.382 329.763C380.105 330.019 380.812 330.283 381.511 330.54C382.535 330.918 383.528 331.295 384.506 331.68C384.807 331.793 385.1 331.914 385.394 332.027C385.943 332.239 386.477 332.458 387.004 332.676C387.358 332.812 387.704 332.956 388.05 333.107C388.388 333.243 388.734 333.386 389.066 333.529C389.404 333.665 389.735 333.809 390.066 333.96C390.345 334.073 390.615 334.194 390.879 334.315C391.413 334.549 391.947 334.783 392.466 335.024C392.722 335.145 392.978 335.258 393.234 335.379L393.821 335.651C393.903 335.696 393.986 335.734 394.069 335.772C394.709 336.073 395.325 336.375 395.927 336.677C396.492 336.964 397.041 337.251 397.568 337.53C398.192 337.863 398.786 338.187 399.358 338.519C399.471 338.58 399.584 338.648 399.697 338.708C400.081 338.927 400.449 339.154 400.818 339.372C401.54 339.818 402.225 340.256 402.864 340.693C403.497 341.131 404.083 341.562 404.633 341.992C404.633 341.999 404.633 341.999 404.64 341.999C404.903 342.211 405.159 342.422 405.4 342.626C405.791 342.966 406.152 343.29 406.484 343.623C406.594 343.725 406.7 343.833 406.8 343.947C406.843 343.984 406.884 344.024 406.92 344.068C407.078 344.242 407.236 344.415 407.386 344.589C407.567 344.8 407.733 345.012 407.891 345.223C407.966 345.329 408.049 345.434 408.116 345.54C408.207 345.668 408.297 345.804 408.372 345.933C408.44 346.038 408.5 346.151 408.56 346.257C408.72 346.529 408.856 346.815 408.966 347.11C409.049 347.311 409.117 347.518 409.17 347.729C409.227 347.93 409.269 348.134 409.298 348.341Z" fill="black"/>
</g>
<defs>
<clipPath id="clip0_10_806">
<rect width="592" height="432" fill="white"/>
</clipPath>
</defs>
</svg>
